<svg width="27" height="18" viewBox="0 0 27 18" fill="none" xmlns="http://www.w3.org/2000/svg">
<path d="M25.7812 2.8125C25.9375 3.53125 26.0625 4.35938 26.1562 5.29688C26.2188 6.26562 26.2656 7.125 26.2969 7.875C26.2969 8.59375 26.2969 8.96875 26.2969 9C26.2969 9.0625 26.2969 9.45312 26.2969 10.1719C26.2656 10.9219 26.2188 11.7656 26.1562 12.7031C26.0625 13.6719 25.9375 14.5156 25.7812 15.2344C25.4062 16.3906 24.6406 17.1406 23.4844 17.4844C22.7344 17.6406 21.5781 17.7656 20.0156 17.8594C18.4531 17.9219 17 17.9688 15.6562 18C14.3125 18 13.5938 18 13.5 18C13.4062 18 12.6875 18 11.3438 18C10 17.9688 8.54688 17.9219 6.98438 17.8594C5.42188 17.7656 4.26562 17.6406 3.51562 17.4844C2.35938 17.1406 1.59375 16.3906 1.21875 15.2344C1.0625 14.5156 0.9375 13.6719 0.84375 12.7031C0.78125 11.7656 0.734375 10.9219 0.703125 10.1719C0.703125 9.45312 0.703125 9.0625 0.703125 9C0.703125 8.96875 0.703125 8.59375 0.703125 7.875C0.734375 7.125 0.78125 6.26562 0.84375 5.29688C0.9375 4.35938 1.0625 3.53125 1.21875 2.8125C1.59375 1.65625 2.35938 0.890625 3.51562 0.515625C4.26562 0.359375 5.42188 0.234375 6.98438 0.140625C8.54688 0.078125 10 0.03125 11.3438 0C12.6875 0 13.4062 0 13.5 0C13.5938 0 14.3125 0 15.6562 0C17 0.03125 18.4531 0.078125 20.0156 0.140625C21.5781 0.234375 22.7344 0.359375 23.4844 0.515625C24.6406 0.890625 25.4062 1.65625 25.7812 2.8125ZM10.875 12.8438L17.5781 9L10.875 5.20312V12.8438Z" fill="#DDDEE2" fill-opacity="0.6"/>
</svg>
