<svg xmlns="http://www.w3.org/2000/svg" width="55" height="45" viewBox="0 0 55 45" fill="none">
  <path d="M43.0208 23.1326C45.3107 27.9953 43.7797 34.5864 40.133 38.4244C36.1323 42.8898 28.1619 44.411 23.5925 40.0658C15.2266 44.1045 6.88244 44.8831 0.177522 43.9181C-0.0503374 43.885 -0.0625778 43.5586 0.162457 43.5085C8.96331 41.5398 17.638 38.2598 25.4059 33.3783C29.3888 30.8883 33.2539 27.9319 36.9072 24.4268C38.0352 25.2669 38.7461 28.158 37.7829 29.5231C34.2849 33.2269 30.6053 36.1076 26.887 38.3015C30.2465 40.6363 35.1794 39.3081 37.6755 36.2211C40.2761 33.0945 41.342 28.1419 39.602 24.3247C37.9382 20.7552 33.1833 20.0457 29.9038 21.7041C26.1036 23.5413 24.0727 27.7408 24.0595 31.9677C22.7893 32.8665 21.5662 33.5022 20.5503 33.9412C19.7358 27.7455 22.9899 21.2869 28.724 18.8007C32.5346 17.0534 37.8309 17.217 40.9108 20.2624C45.7918 14.7592 50.189 8.11992 53.8441 0.122088C53.9534 -0.116315 54.3121 0.0265374 54.2292 0.275346C51.1437 9.61939 47.3002 17.1376 43.0208 23.1326Z" fill="#1F1F1F"/>
  <path d="M25.3107 14.0762C26.0636 14.0762 26.6741 13.4628 26.6741 12.7063C26.6741 11.9497 26.0636 11.3364 25.3107 11.3364C24.5577 11.3364 23.9473 11.9497 23.9473 12.7063C23.9473 13.4628 24.5577 14.0762 25.3107 14.0762Z" fill="#1F1F1F"/>
  <path d="M22.3094 10.8634C23.9667 10.8634 25.3102 9.51356 25.3102 7.84841C25.3102 6.18325 23.9667 4.83337 22.3094 4.83337C20.6521 4.83337 19.3086 6.18325 19.3086 7.84841C19.3086 9.51356 20.6521 10.8634 22.3094 10.8634Z" fill="#1F1F1F"/>
</svg>
