<svg width="265" height="104" viewBox="0 0 265 104" fill="none" xmlns="http://www.w3.org/2000/svg">
<path d="M98.0332 83.517H90.9512L99.3558 36.0342H116.165C119.077 36.0342 121.636 36.5628 123.842 37.6221C126.048 38.6794 127.768 40.1679 129.005 42.0858C130.239 44.0036 130.858 46.242 130.858 48.7973C130.858 51.5306 130.307 53.9884 129.204 56.1705C128.101 58.3527 126.5 60.1712 124.405 61.626C122.309 63.0807 119.782 64.1175 116.827 64.7342L126.29 83.5152H118.48L109.612 65.5929H101.142L98.0313 83.5152L98.0332 83.517ZM105.312 41.9864L102.202 59.6444H111.732C114.246 59.6444 116.398 59.2263 118.184 58.3883C119.97 57.5522 121.337 56.3824 122.287 54.8826C123.234 53.3847 123.709 51.5981 123.709 49.5265C123.709 47.1906 122.925 45.3497 121.36 44.0036C119.793 42.6594 117.576 41.9864 114.709 41.9864H105.312Z" fill="#DDDEE2"/>
<path d="M140.387 83.517H133.305L141.709 36.0342H148.791L140.387 83.517Z" fill="#DDDEE2"/>
<path d="M172.615 84.5085C168.555 84.5085 164.972 83.6368 161.861 81.8971C158.751 80.1555 156.323 77.7202 154.582 74.5894C152.839 71.4586 151.969 67.8667 151.969 63.8098C151.969 59.7529 152.663 55.9847 154.053 52.5015C155.443 49.0183 157.383 45.9775 159.876 43.3754C162.368 40.7751 165.281 38.7354 168.611 37.2582C171.941 35.7809 175.549 35.0422 179.432 35.0422C183.316 35.0422 186.469 35.7696 189.293 37.2244C192.116 38.6792 194.365 40.6964 196.043 43.276C197.718 45.8556 198.645 48.887 198.823 52.3684H191.609C191.521 50.0775 190.936 48.1146 189.855 46.4818C188.773 44.8508 187.308 43.5835 185.454 42.6798C183.601 41.7762 181.417 41.3244 178.903 41.3244C176.08 41.3244 173.464 41.8868 171.061 43.0117C168.656 44.1365 166.572 45.7131 164.806 47.7397C163.041 49.7681 161.662 52.1378 160.67 54.8486C159.677 57.5595 159.18 60.5253 159.18 63.7442C159.18 66.6537 159.764 69.2221 160.934 71.4493C162.103 73.6764 163.747 75.418 165.865 76.6741C167.983 77.9302 170.453 78.5582 173.277 78.5582C176.1 78.5582 178.505 77.9958 180.755 76.871C183.004 75.7461 184.935 74.1489 186.546 72.0754C188.156 70.0039 189.293 67.5349 189.955 64.6684H174.204L175.196 58.9805H198.425C197.632 64.2278 196.076 68.7684 193.759 72.6041C191.443 76.4398 188.486 79.3831 184.891 81.4321C181.295 83.4831 177.203 84.5067 172.615 84.5067V84.5085Z" fill="#DDDEE2"/>
<path d="M208.684 83.517H201.602L210.006 36.0342H217.088L208.684 83.517Z" fill="#DDDEE2"/>
<path d="M249.448 83.517L232.241 46.0864L225.623 83.517H219.004L227.409 36.0342H235.085L251.895 72.5387L258.314 36.0342H264.999L256.594 83.517H249.446H249.448Z" fill="#DDDEE2"/>
<path d="M50.3995 90.8227L48.8517 99.5757C48.5872 101.025 48.1088 102.125 47.4128 102.873C46.7168 103.623 45.7825 103.996 44.6063 103.996C43.43 103.996 42.6008 103.649 41.9348 102.954C41.2688 102.258 40.9311 101.317 40.918 100.133H41.7453C41.7453 101.068 42.0061 101.816 42.5276 102.38C43.0491 102.945 43.747 103.226 44.6231 103.226C45.4993 103.226 46.2684 102.93 46.8275 102.335C47.3847 101.743 47.7711 100.864 47.9869 99.7013L49.5515 90.8208H50.3976L50.3995 90.8227Z" fill="#DDDEE2"/>
<path d="M65.617 90.8228L64.088 99.469C63.8235 100.918 63.2719 102.037 62.4333 102.821C61.5929 103.606 60.5141 103.998 59.1953 103.998C58.3548 103.998 57.625 103.818 57.0003 103.458C56.3775 103.098 55.9235 102.581 55.6421 101.904C55.3606 101.227 55.3025 100.416 55.4713 99.469L57.0191 90.8228H57.8464L56.2987 99.5402C56.143 100.367 56.1824 101.057 56.415 101.608C56.6495 102.159 57.0153 102.57 57.5125 102.84C58.0096 103.11 58.5649 103.245 59.1765 103.245C60.2909 103.245 61.197 102.918 61.893 102.264C62.589 101.612 63.0318 100.703 63.225 99.5402L64.7727 90.8228H65.6188H65.617Z" fill="#DDDEE2"/>
<path d="M75.6898 103.73L72.902 91.957L70.8327 103.73H70.041L72.326 90.8247H73.4235L76.247 102.688L83.2615 90.8247H84.4134L82.1283 103.73H81.3366L83.4228 91.9739L76.4796 103.73H75.6879H75.6898Z" fill="#DDDEE2"/>
<path d="M93.5876 98.7866H90.5653L89.7023 103.73H88.875L91.16 90.8247H94.9384C95.6212 90.8247 96.2272 90.9691 96.7544 91.2559C97.2815 91.5427 97.6924 91.9364 97.9869 92.4332C98.2815 92.93 98.4278 93.5149 98.4278 94.1861C98.4278 95.0972 98.2233 95.8958 97.8162 96.5857C97.4091 97.2756 96.8425 97.8137 96.1165 98.2036C95.3905 98.5935 94.5481 98.7885 93.5895 98.7885L93.5876 98.7866ZM94.7751 91.5783H91.8429L90.7098 98.0499H93.7133C94.4919 98.0499 95.171 97.8886 95.7451 97.5643C96.321 97.24 96.7694 96.7919 97.0939 96.2164C97.4185 95.6409 97.5798 94.9753 97.5798 94.2217C97.5798 93.4193 97.3247 92.7782 96.8144 92.2982C96.3041 91.8183 95.625 91.5783 94.7733 91.5783H94.7751Z" fill="#DDDEE2"/>
<path d="M112.061 103.73L111.108 92.0114L105.964 103.73H105.028L104.039 90.8247H104.866L105.712 102.491L110.84 90.8247H111.738L112.691 102.508L117.691 90.8247H118.554L113.014 103.73H112.061Z" fill="#DDDEE2"/>
<path d="M127.367 104C126.324 104 125.403 103.76 124.606 103.28C123.808 102.8 123.182 102.137 122.726 101.286C122.27 100.434 122.043 99.4633 122.043 98.3741C122.043 97.2849 122.232 96.2651 122.61 95.3183C122.987 94.3716 123.506 93.5411 124.165 92.8287C124.823 92.1163 125.594 91.5595 126.476 91.1565C127.358 90.7553 128.301 90.5547 129.309 90.5547C130.316 90.5547 131.266 90.7909 132.052 91.2652C132.838 91.7395 133.457 92.3957 133.913 93.2337C134.369 94.0735 134.596 95.0371 134.596 96.1282C134.596 97.2193 134.41 98.241 134.038 99.1934C133.667 100.146 133.147 100.982 132.483 101.702C131.817 102.422 131.046 102.984 130.172 103.391C129.296 103.798 128.361 104.002 127.365 104.002L127.367 104ZM127.44 103.245C128.328 103.245 129.151 103.065 129.913 102.705C130.675 102.345 131.342 101.842 131.918 101.196C132.494 100.549 132.941 99.7933 133.258 98.9309C133.575 98.0686 133.734 97.1406 133.734 96.1451C133.734 95.1496 133.545 94.3454 133.168 93.6199C132.791 92.8943 132.262 92.3282 131.585 91.9214C130.907 91.5145 130.119 91.3102 129.219 91.3102C128.318 91.3102 127.504 91.4902 126.737 91.8501C125.97 92.2101 125.3 92.7106 124.731 93.3518C124.161 93.9929 123.715 94.7391 123.392 95.5902C123.067 96.4413 122.906 97.3693 122.906 98.376C122.906 99.3827 123.097 100.179 123.482 100.911C123.865 101.642 124.399 102.214 125.082 102.628C125.765 103.042 126.551 103.248 127.438 103.248L127.44 103.245Z" fill="#DDDEE2"/>
<path d="M140.21 103.73H139.383L141.668 90.8247H145.769C146.465 90.8247 147.076 90.9634 147.604 91.239C148.131 91.5146 148.545 91.9008 148.846 92.3976C149.146 92.8944 149.296 93.4606 149.296 94.0961C149.296 94.876 149.131 95.5677 148.801 96.1714C148.47 96.7769 148.003 97.2681 147.397 97.6449C146.791 98.0217 146.08 98.2598 145.266 98.3555L147.928 103.73H147.011L144.384 98.4267H141.146L140.21 103.73ZM142.351 91.5615L141.272 97.6918H144.564C145.356 97.6918 146.043 97.5456 146.624 97.2512C147.206 96.9569 147.656 96.5482 147.973 96.0195C148.29 95.4928 148.45 94.8628 148.45 94.1317C148.45 93.3537 148.189 92.7294 147.667 92.2626C147.146 91.7958 146.454 91.5615 145.591 91.5615H142.353H142.351Z" fill="#DDDEE2"/>
<path d="M154.654 103.73H153.846L156.131 90.8247H156.939L155.806 97.2419L163.145 90.8247H164.207L156.652 97.4575L162.012 103.73H160.969L155.752 97.5999L154.654 103.73Z" fill="#DDDEE2"/>
<path d="M176.366 100.279C176.366 100.997 176.182 101.631 175.818 102.176C175.453 102.722 174.946 103.147 174.299 103.453C173.652 103.758 172.896 103.912 172.033 103.912C170.678 103.912 169.607 103.552 168.823 102.834C168.037 102.116 167.645 101.139 167.645 99.904H168.472C168.508 100.935 168.841 101.741 169.47 102.322C170.1 102.904 170.96 103.194 172.051 103.194C172.734 103.194 173.338 103.07 173.86 102.825C174.381 102.579 174.787 102.24 175.074 101.809C175.361 101.378 175.505 100.886 175.505 100.335C175.505 99.664 175.331 99.1391 174.984 98.7623C174.637 98.3855 174.042 98.0893 173.203 97.8718L171.89 97.5119C170.907 97.2363 170.17 96.8238 169.678 96.2708C169.187 95.7196 168.941 95.0429 168.941 94.2405C168.941 93.4981 169.115 92.8588 169.462 92.3264C169.809 91.794 170.301 91.3797 170.937 91.0853C171.573 90.791 172.327 90.6448 173.203 90.6448C173.971 90.6448 174.653 90.8135 175.254 91.1472C175.854 91.4828 176.321 91.944 176.657 92.5307C176.993 93.1175 177.16 93.7962 177.16 94.5611H176.332C176.332 93.9255 176.197 93.3725 175.927 92.8982C175.657 92.4258 175.289 92.0508 174.82 91.7752C174.353 91.4996 173.807 91.3609 173.183 91.3609C172.126 91.3609 171.297 91.6159 170.691 92.1258C170.085 92.6357 169.783 93.3331 169.783 94.2199C169.783 94.9154 169.999 95.4628 170.43 95.864C170.862 96.2652 171.457 96.5689 172.211 96.7714L173.578 97.1482C174.537 97.4125 175.242 97.795 175.693 98.2993C176.143 98.8017 176.368 99.4616 176.368 100.277L176.366 100.279Z" fill="#DDDEE2"/>
<path d="M85.7192 45.8407C90.2817 55.4768 87.2313 68.5379 79.9654 76.1437C71.9941 84.9923 56.1134 88.0069 47.009 79.3963C30.3404 87.3995 13.7149 88.9424 0.355659 87.0302C-0.0983422 86.9645 -0.122731 86.3178 0.325643 86.2184C17.861 82.3171 35.1449 75.8175 50.6223 66.1439C58.5579 61.2097 66.2591 55.3512 73.5381 48.4053C75.7856 50.0701 77.202 55.7992 75.2828 58.5044C68.3133 65.844 60.9818 71.5525 53.5733 75.8999C60.267 80.5267 70.0956 77.8946 75.0689 71.7774C80.2506 65.5815 82.3742 55.7673 78.9073 48.2029C75.5924 41.1295 66.1184 39.7235 59.5841 43.0099C52.0124 46.6506 47.9658 54.9725 47.9395 63.3487C45.4088 65.1297 42.9718 66.3895 40.9475 67.2594C39.3248 54.9818 45.8083 42.1831 57.2334 37.2564C64.8258 33.7938 75.3785 34.1181 81.515 40.1528C91.2404 29.2476 100.001 16.0908 107.284 0.241934C107.502 -0.230495 108.217 0.0525877 108.052 0.545639C101.904 19.0622 94.2458 33.9606 85.7192 45.8407Z" fill="#DDDEE2"/>
<path d="M50.4313 27.894C51.9316 27.894 53.1479 26.6787 53.1479 25.1794C53.1479 23.6802 51.9316 22.4648 50.4313 22.4648C48.9311 22.4648 47.7148 23.6802 47.7148 25.1794C47.7148 26.6787 48.9311 27.894 50.4313 27.894Z" fill="#DDDEE2"/>
<path d="M44.4516 21.5276C47.7537 21.5276 50.4305 18.8526 50.4305 15.5529C50.4305 12.2531 47.7537 9.57812 44.4516 9.57812C41.1495 9.57812 38.4727 12.2531 38.4727 15.5529C38.4727 18.8526 41.1495 21.5276 44.4516 21.5276Z" fill="#DDDEE2"/>
</svg>
